<svg width="900" height="300" xmlns="http://www.w3.org/2000/svg">

 <g>
  <title>background</title>
  <rect id="svg_13" height="300" width="900" y="0" x="0" fill="#ffffff"/>
  <g id="svg_8">
   <path id="svg_9" fill="#a5a5a5" d="m177.886383,50.501862l-28.371735,0c0,-12.997864 -10.494385,-23.49173 -23.492249,-23.49173c-13,0 -23.492264,10.493866 -23.492264,23.49173l-28.374405,0l0,40.681076l103.730652,0l0,-40.681076z"/>
   <path id="svg_10" fill="#a5a5a5" d="m187.886383,70.498138l0,30.683197l-123.72905,0l0,-30.683197l-35.993057,0l0,196.491211l195.671448,0l0,-196.491211l-35.949341,0zm-122.757858,171.940277l-15.742935,-15.740814l7.069336,-7.069855l8.673599,8.670929l20.880005,-20.881622l7.069351,7.069336l-27.949356,27.952026zm0,-44.420288l-15.742935,-15.740265l7.069336,-7.069855l8.673599,8.670929l20.880005,-20.882141l7.069351,7.069885l-27.949356,27.951447zm0,-44.419739l-15.742935,-15.74559l7.069336,-7.06987l8.673599,8.675735l20.880005,-20.881592l7.069351,7.069321l-27.949356,27.951996zm133.950943,80.349335l-92.213867,0l0,-9.998932l92.213867,0l0,9.998932zm0,-44.419708l-92.213867,0l0,-9.998962l92.213867,0l0,9.998962zm0,-44.425079l-92.213867,0l0,-9.998932l92.213867,0l0,9.998932z"/>
  </g>
  <rect id="svg_11" height="279" width="241" y="9.949997" x="9" stroke-width="null" stroke="#666666" fill="none"/>
  <text transform="matrix(1.04259, 0, 0, 1.01472, -11.0297, 53.5622)" xml:space="preserve" text-anchor="start" font-family="Junction, sans-serif" font-size="171" id="svg_12" y="142.920991" x="253" stroke-width="0" stroke="#666666" fill="#999999">Projects</text>
  <text xml:space="preserve" text-anchor="start" font-family="Junction, sans-serif" font-size="23" id="svg_14" y="238.950012" x="843" stroke-opacity="null" stroke-width="0" stroke="#666666" fill="#666666">0.2</text>
 </g>
</svg>